<?xml version="1.0" standalone="no"?>
<!DOCTYPE svg PUBLIC "-//W3C//DTD SVG 20010904//EN"
 "http://www.w3.org/TR/2001/REC-SVG-20010904/DTD/svg10.dtd">
<svg version="1.0" xmlns="http://www.w3.org/2000/svg"
 width="628.000000pt" height="95.000000pt" viewBox="0 0 628.000000 95.000000"
 preserveAspectRatio="xMidYMid meet">

<g transform="translate(0.000000,95.000000) scale(0.100000,-0.100000)"
fill="#000000" stroke="none">
<path d="M0 475 l0 -475 3140 0 3140 0 0 475 0 475 -3140 0 -3140 0 0 -475z
m765 -20 l0 -325 -92 0 -91 0 54 122 c30 67 54 126 54 130 0 5 -10 8 -22 6
-18 -2 -31 -23 -64 -100 l-41 -97 -38 94 c-21 52 -41 95 -44 95 -3 0 -12 -15
-19 -32 -45 -110 -50 -121 -57 -143 -5 -15 -16 4 -49 80 -34 82 -46 101 -65
103 -26 4 -25 -7 14 -93 13 -27 35 -76 48 -107 l26 -58 -95 0 -94 0 0 325 0
325 288 0 287 0 0 -325z m561 228 c-3 -10 -12 -44 -21 -76 l-17 -58 -105 3
-105 3 -66 73 -65 72 192 0 c178 0 192 -1 187 -17z m299 -10 c-3 -16 -23 -91
-44 -168 -21 -77 -34 -141 -30 -143 4 -2 30 13 57 34 47 35 51 40 72 123 13
47 29 107 37 134 l14 47 103 0 103 0 -40 -150 -40 -150 -124 -95 -124 -95
-104 0 c-94 0 -105 2 -115 20 -13 25 -25 25 -57 0 -23 -18 -41 -20 -159 -20
-133 0 -134 0 -151 26 -16 25 -16 31 12 138 15 61 32 117 38 124 9 12 187 18
199 6 3 -3 0 -24 -7 -47 -33 -113 -31 -116 42 -58 48 38 50 41 78 147 44 171
28 154 146 154 l101 0 -7 -27z m871 10 c-2 -10 -12 -44 -20 -75 l-16 -57 -153
-3 c-135 -3 -152 -5 -155 -20 -3 -16 8 -18 117 -18 135 0 131 2 111 -72 l-11
-37 -127 -3 c-111 -3 -127 -5 -130 -20 -3 -17 9 -18 147 -18 83 0 151 -2 151
-4 0 -1 -4 -16 -10 -32 -5 -16 -14 -48 -20 -71 l-11 -43 -229 0 -229 0 -19 25
-19 24 52 196 c29 108 55 198 57 199 1 1 16 12 32 24 28 21 38 22 258 22 214
0 229 -1 224 -17z m843 -14 c14 -25 11 -41 -38 -225 -29 -110 -54 -207 -57
-216 -5 -16 -19 -18 -103 -18 -54 0 -100 2 -103 5 -3 3 15 76 38 163 24 86 43
160 44 165 0 4 -21 7 -47 7 l-48 0 -45 -170 -45 -170 -102 0 c-57 0 -103 4
-103 8 0 5 6 31 14 58 8 27 28 100 45 162 l30 112 -48 0 -48 0 -45 -167 -45
-168 -101 -3 c-75 -2 -102 1 -102 9 0 7 25 105 55 218 51 189 58 208 88 233
l32 28 360 -3 359 -2 15 -26z m563 6 c17 -23 16 -29 -34 -217 -46 -173 -54
-196 -82 -220 l-31 -27 -207 -1 -208 0 -16 25 c-16 25 -15 33 32 213 44 169
52 190 82 220 l33 32 207 0 c207 -1 207 -1 224 -25z m582 -7 c-3 -18 -12 -51
-18 -73 l-12 -40 -77 -3 -76 -3 -12 -42 c-6 -23 -21 -80 -34 -127 -13 -47 -28
-104 -35 -127 l-11 -43 -103 0 -103 0 43 158 c24 86 43 163 44 170 0 8 -21 12
-73 12 l-74 0 20 75 20 75 254 0 255 0 -8 -32z m531 6 c17 -26 16 -32 -34
-218 -45 -167 -55 -195 -81 -219 l-30 -27 -209 0 -209 0 -17 26 c-17 26 -16
32 34 218 45 167 55 195 81 219 l30 27 209 0 209 0 17 -26z m563 1 c20 -25 20
-26 1 -98 -14 -57 -25 -77 -51 -99 -32 -26 -33 -26 -14 -47 21 -23 19 -37 -21
-173 l-14 -48 -103 0 -104 0 13 43 c30 103 31 97 -23 97 l-48 0 -18 -70 -18
-70 -105 0 c-95 0 -104 2 -99 18 5 17 94 347 116 430 l11 42 229 0 229 0 19
-25z m581 -42 c-10 -38 -19 -71 -19 -75 0 -5 -69 -8 -154 -8 -145 0 -154 -1
-159 -20 -5 -19 0 -20 133 -20 120 0 140 -2 148 -17 7 -11 1 -49 -19 -122 -23
-86 -34 -111 -59 -134 l-30 -27 -230 0 c-261 0 -242 -8 -212 90 l18 55 149 3
c143 2 164 7 165 35 0 4 -56 7 -124 7 l-125 0 -20 29 -20 28 25 94 c20 76 31
99 57 122 l31 27 232 0 233 0 -20 -67z m-5649 -420 c14 -37 27 -71 28 -75 2
-5 -24 -8 -58 -8 -34 0 -60 3 -58 8 2 4 14 38 28 75 14 37 27 67 30 67 3 0 16
-30 30 -67z"/>
<path d="M3581 518 c-5 -18 -15 -53 -21 -78 -6 -25 -13 -53 -16 -62 -5 -16 2
-18 45 -18 28 0 51 3 51 8 0 4 11 46 24 95 l24 87 -48 0 c-46 0 -49 -2 -59
-32z"/>
<path d="M4678 458 l-25 -93 45 -3 c24 -2 45 -2 47 0 2 2 14 45 28 96 l26 92
-48 0 -48 0 -25 -92z"/>
<path d="M5267 543 c-4 -3 -7 -13 -7 -20 0 -23 94 -13 98 10 3 14 -4 17 -41
17 -24 0 -47 -3 -50 -7z"/>
</g>
</svg>
